# xmcd CD database file
#
# Track frame offsets:
#	150
#	49712
#	89506
#	120840
#	149200
#
# Disc length: 2380 seconds
#
# Revision: 1
# Processed by: cddbd v1.4PL0 Copyright (c) Steve Scherf et al.
# Submitted via: CDex 1.51
#
DISCID=42094a05
DTITLE=Medwyn Goodall - The Four Horsemen (Trilogy Pt1)
DYEAR=1994
DGENRE=New Age
TTITLE0=Goodall. Medwyn - The Awakening
TTITLE1=Goodall. Medwyn - The Sword Of Truth
TTITLE2=Goodall. Medwyn - No More Secrets
TTITLE3=Goodall. Medwyn - Elegy
TTITLE4=Goodall. Medwyn - The Power And The Glory
EXTD=YEAR: 1994
EXTT0=
EXTT1=
EXTT2=
EXTT3=
EXTT4=
PLAYORDER=
